<svg width="42" height="16" viewBox="0 0 42 16" fill="none" xmlns="http://www.w3.org/2000/svg">
<path d="M8.6371 12.2942H10.6016V5.86162H8.6371V12.2942ZM11.279 1.48444H9.95806V2.96887H11.279V1.48444ZM3.86129 2.20762H1.96452V4.07269H3.72581C4.84355 4.07269 5.4871 4.68169 5.4871 5.82356C5.4871 6.96544 4.84355 7.6125 3.72581 7.6125H1.96452V4.11075H0V12.2942H1.96452V9.47756H3.82742C6.09677 9.47756 7.41774 8.10731 7.41774 5.74744C7.41774 3.53981 6.13064 2.20762 3.86129 2.20762ZM12.6 0H8.6371V4.45331H12.6V0ZM11.9565 3.69206H9.31452V0.723188H11.9565V3.69206ZM23.4726 2.20762H21.6774V4.07269H23.371C24.4887 4.07269 25.1323 4.68169 25.1323 5.82356C25.1323 6.96544 24.4887 7.6125 23.371 7.6125H21.6774V4.11075H19.7129V12.2942H21.6774V9.47756H23.4726C25.7419 9.47756 27.0629 8.10731 27.0629 5.74744C27.0629 3.53981 25.7419 2.20762 23.4726 2.20762ZM39.9677 4.5675L38.2742 9.36337L36.5806 4.5675H34.5484L37.2581 12.2942L36.2081 15.225H38.2742L42 4.5675H39.9677ZM31.1613 4.52944C29.9758 4.52944 29.0613 4.83394 28.0452 5.40488L28.6548 6.92737C29.3661 6.47062 30.0774 6.24225 30.721 6.24225C31.6694 6.24225 32.1436 6.699 32.1436 7.53637V7.68862H30.2468C28.5532 7.68862 27.6387 8.56406 27.6387 10.0104C27.6387 11.4187 28.5194 12.4084 30.0097 12.4084C30.9581 12.4084 31.6355 12.0277 32.1774 11.3807V12.2181H34.1081V7.19381C34.0403 5.55712 32.9903 4.52944 31.1613 4.52944ZM32.3129 9.70594C32.1097 10.353 31.5339 10.8859 30.721 10.8859C30.0435 10.8859 29.6371 10.5052 29.6371 9.89625C29.6371 9.28725 30.0097 9.02081 30.7548 9.02081H32.3129V9.70594ZM15.6145 10.6194C14.6661 10.6194 13.9887 9.78206 13.9887 8.526C13.9887 7.308 14.6661 6.47063 15.6145 6.47063C16.2919 6.47063 16.8 6.77513 17.1726 7.308L18.4935 6.24225C17.8839 5.21456 16.8339 4.60556 15.5129 4.60556C13.4468 4.5675 12.0242 6.16612 12.0242 8.526C12.0242 10.8859 13.4468 12.4464 15.5129 12.4464C16.9355 12.4464 17.9855 11.7994 18.5613 10.7336L17.2065 9.70594C16.8677 10.3149 16.3258 10.6194 15.6145 10.6194Z" fill="white"/>
</svg>
