<svg width="642" height="251" viewBox="0 0 642 251" fill="none" xmlns="http://www.w3.org/2000/svg">
<g filter="url(#filter0_d_19_391)">
<path fill-rule="evenodd" clip-rule="evenodd" d="M74.1758 75.0724C74.0431 29.7737 117.581 1.14915 166.216 4.22567C331.16 14.7446 463.443 19.6815 575.544 27.8917C607.936 29.8736 632.727 60.2673 631.974 95.7677C631.57 117.611 631.094 139.587 630.646 161.462C629.953 196.537 604.156 225.977 571.791 227.229C459.681 231.719 328.102 234.111 162.389 234.115C115.312 233.99 76.6715 205.586 74.124 163.81L10 140.892L74.2012 133.172C74.2699 113.842 74.1771 94.2822 74.1758 75.0724Z" fill="white"/>
</g>
<defs>
<filter id="filter0_d_19_391" x="0" y="0" width="641.99" height="250.115" filterUnits="userSpaceOnUse" color-interpolation-filters="sRGB">
<feFlood flood-opacity="0" result="BackgroundImageFix"/>
<feColorMatrix in="SourceAlpha" type="matrix" values="0 0 0 0 0 0 0 0 0 0 0 0 0 0 0 0 0 0 127 0" result="hardAlpha"/>
<feOffset dy="6"/>
<feGaussianBlur stdDeviation="5"/>
<feColorMatrix type="matrix" values="0 0 0 0 0 0 0 0 0 0 0 0 0 0 0 0 0 0 1 0"/>
<feBlend mode="multiply" in2="BackgroundImageFix" result="effect1_dropShadow_19_391"/>
<feBlend mode="normal" in="SourceGraphic" in2="effect1_dropShadow_19_391" result="shape"/>
</filter>
</defs>
</svg>
