<svg width="682" height="349" viewBox="0 0 682 349" fill="none" xmlns="http://www.w3.org/2000/svg">
<g filter="url(#filter0_d_1_97)">
<path d="M571.716 5.01172C623.351 4.21604 665.458 44.3546 665.007 94.6914C664.83 125.73 664.533 157.012 664.279 188.202C663.918 238.326 621.212 277.5 569.349 275.537C407.521 269.609 258.849 260.778 121.639 250.607L72.4814 321.359L82.8652 247.427C43.5074 241.415 15.2427 209.728 16.0156 168.97C16.5498 142.456 16.6419 115.02 16.8789 88.3438C17.1621 45.0745 51.9591 14.2713 94.0176 13.7646C238.566 12.1086 398.694 5.86989 571.716 5.01172Z" fill="white"/>
</g>
<defs>
<filter id="filter0_d_1_97" x="0" y="0" width="681.01" height="348.359" filterUnits="userSpaceOnUse" color-interpolation-filters="sRGB">
<feFlood flood-opacity="0" result="BackgroundImageFix"/>
<feColorMatrix in="SourceAlpha" type="matrix" values="0 0 0 0 0 0 0 0 0 0 0 0 0 0 0 0 0 0 127 0" result="hardAlpha"/>
<feOffset dy="11"/>
<feGaussianBlur stdDeviation="8"/>
<feColorMatrix type="matrix" values="0 0 0 0 0 0 0 0 0 0 0 0 0 0 0 0 0 0 1 0"/>
<feBlend mode="multiply" in2="BackgroundImageFix" result="effect1_dropShadow_1_97"/>
<feBlend mode="normal" in="SourceGraphic" in2="effect1_dropShadow_1_97" result="shape"/>
</filter>
</defs>
</svg>
